<svg height="512pt" viewBox="0 0 512 512.001" width="512pt" xmlns="http://www.w3.org/2000/svg"><path d="m67 272.128906c2.628906 0 5.210938-1.070312 7.070312-2.929687 1.859376-1.859375 2.929688-4.4375 2.929688-7.070313 0-2.628906-1.070312-5.199218-2.929688-7.070312-1.859374-1.859375-4.441406-2.929688-7.070312-2.929688s-5.210938 1.070313-7.070312 2.929688c-1.859376 1.863281-2.929688 4.441406-2.929688 7.070312 0 2.640625 1.070312 5.210938 2.929688 7.070313 1.859374 1.859375 4.441406 2.929687 7.070312 2.929687zm0 0"/><path d="m223 372.070312c-2.628906 0-5.210938 1.070313-7.070312 2.929688-1.859376 1.859375-2.929688 4.4375-2.929688 7.070312 0 2.628907 1.070312 5.210938 2.929688 7.070313 1.859374 1.859375 4.441406 2.929687 7.070312 2.929687s5.210938-1.070312 7.070312-2.929687c1.859376-1.859375 2.929688-4.441406 2.929688-7.070313 0-2.632812-1.070312-5.210937-2.929688-7.070312-1.859374-1.859375-4.441406-2.929688-7.070312-2.929688zm0 0"/><path d="m445 372.070312c-2.628906 0-5.210938 1.070313-7.070312 2.929688-1.859376 1.859375-2.929688 4.4375-2.929688 7.070312 0 2.628907 1.070312 5.199219 2.929688 7.070313 1.859374 1.859375 4.441406 2.929687 7.070312 2.929687s5.210938-1.070312 7.070312-2.929687c1.859376-1.859375 2.929688-4.441406 2.929688-7.070313 0-2.632812-1.070312-5.210937-2.929688-7.070312-1.859374-1.859375-4.441406-2.929688-7.070312-2.929688zm0 0"/><path d="m504 421.632812v-44.445312c0-12.148438-4.835938-23.179688-12.667969-31.300781 2.734375-7.277344 4.160157-15.0625 4.160157-22.878907 0-7.78125-1.347657-15.316406-4.011719-22.488281 12.984375-14.375 20.3125-33.214843 20.3125-52.710937 0-43.332032-35.253907-78.585938-78.589844-78.585938-7.417969 0-14.707031 1.027344-21.757813 3.0625-17.171874-23.945312-45.148437-38.515625-74.847656-38.515625-.101562 0-.199218.003907-.300781.003907 1.65625-6.390626 2.496094-12.988282 2.496094-19.734376 0-43.332031-35.253907-78.585937-78.589844-78.585937-7.417969 0-14.707031 1.027344-21.757813 3.0625-17.171874-23.941406-45.148437-38.515625-74.847656-38.515625-20.136718 0-39.261718 6.390625-55.308594 18.476562-12.820312 9.660157-22.996093 22.699219-29.304687 37.378907-4.613281-1.03125-9.335937-1.550781-14.117187-1.550781-35.769532 0-64.867188 29.101562-64.867188 64.867187 0 24.992187 14.613281 48.023437 37.230469 58.6875l9.914062 4.800781-7.253906 31.457032c-18.441406 5.667968-31.890625 22.859374-31.890625 43.136718v44.441406c-4.960938 5.355469-8 12.511719-8 20.371094 0 16.539063 13.457031 30 30 30h13.121094v16.992188c0 12.683594 10.324218 23.007812 23.007812 23.007812h15.613282c12.683593 0 23.007812-10.324218 23.007812-23.007812v-16.992188h66.914062c-4.835937 7.183594-7.664062 15.828125-7.664062 25.125v44.441406c-4.960938 5.355469-8 12.511719-8 20.367188 0 16.542969 13.457031 30 30 30h13.121094v16.992188c0 12.6875 10.324218 23.007812 23.007812 23.007812h15.613282c12.683593 0 23.007812-10.320312 23.007812-23.007812v-16.992188h146.503906v16.992188c0 12.6875 10.320313 23.007812 23.007813 23.007812h15.609375c12.6875 0 23.007812-10.320312 23.007812-23.007812v-16.992188h13.121094c16.542969 0 30-13.457031 30-30 0-7.855469-3.039062-15.015625-8-20.367188zm-22-9.632812h-296c-.648438 0-1.289062.027344-1.925781.066406h-.074219v-34.878906c0-13.851562 11.269531-25.121094 25.121094-25.121094h249.757812c13.851563 0 25.121094 11.273438 25.121094 25.121094v34.878906h-.074219c-.636719-.039062-1.277343-.066406-1.925781-.066406zm-394.855469-199.867188 92-92h51.203125l-92 92zm-14.453125-51.261718c5.53125-23.984375 26.585938-40.738282 51.199219-40.738282h26.96875l-89.382813 89.382813zm180.359375-35.15625c.28125-.28125.539063-.582032.78125-.890625 11.984375 5.4375 21.699219 15.285156 26.855469 27.890625-12.535156 9.613281-22.492188 22.460937-28.703125 36.910156-4.617187-1.03125-9.335937-1.550781-14.117187-1.550781-20.316407 0-38.46875 9.394531-50.375 24.058593h-20.859376zm135.035157 114.351562c7.6875 0 15.027343 1.632813 21.652343 4.613282l-87.390625 87.390624h-51.203125l92-92h24.941407zm38.179687 16.367188c6.269531 6.632812 10.859375 14.964844 13.03125 24.429687l11.75 51.203125h-100.414063zm-183.40625 75.632812h-25.988281l5.308594-23.027344c.546874-.648437 1.03125-1.371093 1.410156-2.175781 1.027344-2.183593 1.195312-4.550781.644531-6.71875l4.457031-19.339843c5.53125-23.984376 26.585938-40.738282 51.199219-40.738282h54.96875zm155.855469-142.710937c2.519531 4.28125 7.796875 6.066406 12.394531 4.191406 7.039063-2.871094 14.472656-4.324219 22.097656-4.324219 32.304688 0 58.585938 26.28125 58.585938 58.585938 0 16.339844-6.90625 32.058594-18.949219 43.136718-3.292969 3.027344-4.171875 7.875-2.15625 11.867188 3.1875 6.3125 4.804688 13.105469 4.804688 20.195312 0 4-.527344 7.894532-1.539063 11.65625-.640625-.226562-1.285156-.441406-1.9375-.640624l-13.222656-57.632813c-7.605469-33.164063-36.683594-56.324219-70.707031-56.324219h-108.191407c-33.984375 0-63.054687 23.128906-70.6875 56.246094l-2.128906 9.226562c-8.8125-8.359374-14.078125-20.125-14.078125-32.597656 0-24.738281 20.128906-44.867187 44.867188-44.867187 5.695312 0 11.261718 1.066406 16.550781 3.167969 2.601562 1.03125 5.515625.929687 8.035156-.285157 2.519531-1.214843 4.414063-3.429687 5.226563-6.105469 9.269531-30.554687 36.964843-51.082031 68.917968-51.082031 25.410156 0 49.210938 13.632813 62.117188 35.585938zm-352.816406-29.519531c-.03125-.015626-.066407-.03125-.101563-.046876-15.671875-7.375-25.796875-23.316406-25.796875-40.617187 0-24.738281 20.128906-44.867187 44.867188-44.867187 5.695312 0 11.261718 1.066406 16.550781 3.167968 2.597656 1.03125 5.511719.929688 8.035156-.285156 2.519531-1.214844 4.414063-3.429688 5.226563-6.105469 9.269531-30.554687 36.964843-51.082031 68.917968-51.082031 25.410156 0 49.210938 13.636719 62.117188 35.585938 2.515625 4.28125 7.796875 6.066406 12.394531 4.191406 7.039063-2.871094 14.472656-4.324219 22.097656-4.324219 32.304688 0 58.585938 26.28125 58.585938 58.585937 0 7.800782-1.503907 15.328126-4.457031 22.425782-5.636719 1.398437-11.117188 3.339844-16.390626 5.789062-11.734374-25.492187-37.261718-42.121094-65.859374-42.121094h-57.078126c-.003906 0-.007812 0-.011718 0h-51.101563c-33.988281 0-63.054687 23.128907-70.691406 56.246094l-1.449219 6.292969zm-17.898438 97.417968c0-13.851562 11.269531-25.121094 25.121094-25.121094h123.324218c-2.140624 6.292969-3.339843 13.011719-3.425781 20h-65.867187c-5.523438 0-10 4.476563-10 10 0 5.523438 4.476562 10 10 10h68.792968c2.25 7.199219 5.730469 13.945313 10.253907 19.933594h-156.199219c-.648438 0-1.289062.027344-1.925781.066406h-.074219zm-8 64.808594c0-5.128906 3.886719-9.367188 8.871094-9.929688h157.460937c.382813 0 .761719-.027343 1.132813-.070312h13.496094l-4.609376 20h-166.351562c-5.511719 0-10-4.484375-10-10zm64.75 46.996094c0 1.65625-1.351562 3.007812-3.007812 3.007812h-15.613282c-1.65625 0-3.007812-1.351562-3.007812-3.007812v-16.992188h21.628906zm156 119.933594c0 1.65625-1.351562 3.007812-3.007812 3.007812h-15.613282c-1.65625 0-3.007812-1.351562-3.007812-3.007812v-16.992188h21.628906zm208.128906 0c0 1.65625-1.351562 3.007812-3.007812 3.007812h-15.609375c-1.660157 0-3.007813-1.351562-3.007813-3.007812v-16.992188h21.625zm33.121094-36.992188h-296c-5.511719 0-10-4.484375-10-10 0-5.132812 3.886719-9.367188 8.871094-9.933594h298.257812c4.984375.566406 8.871094 4.800782 8.871094 9.933594 0 5.515625-4.484375 10-10 10zm0 0"/><path d="m405 372.066406h-141.1875c-5.519531 0-10 4.480469-10 10 0 5.523438 4.480469 10 10 10h141.1875c5.523438 0 10-4.476562 10-10 0-5.519531-4.476562-10-10-10zm0 0"/></svg>