<svg id="Outline" height="512" viewBox="0 0 64 64" width="512" xmlns="http://www.w3.org/2000/svg"><path d="m57 53.02051v-43.02051a3 3 0 0 0 -6 0v43.02051a5 5 0 1 0 6 0zm-4-43.02051a1 1 0 0 1 2 0v5.00049h-2zm1 50a3.00328 3.00328 0 0 1 -3-3 2.96647 2.96647 0 0 1 1.50293-2.581l.49707-.28912v-37.12939h2v37.12939l.49707.28907a2.96647 2.96647 0 0 1 1.50293 2.58105 3.00328 3.00328 0 0 1 -3 3z"/><path d="m53 2h2v2h-2z"/><path d="m48.05 4.05h2v2h-2z" transform="matrix(.707 -.707 .707 .707 10.806 36.176)"/><path d="m46 9h2v2h-2z"/><path d="m60 9h2v2h-2z"/><path d="m57.949 4.05h2v2h-2z" transform="matrix(.707 -.707 .707 .707 13.682 43.147)"/><circle cx="54" cy="57" r="1"/><path d="m2 22h2v3h-2z"/><path d="m16.496 15.995h2v3h-2z" transform="matrix(.707 -.707 .707 .707 -7.247 17.496)"/><path d="m22 2h3v2h-3z"/><path d="m9.845 20.439h2v3h-2z" transform="matrix(.924 -.383 .383 .924 -7.573 5.823)"/><path d="m20.939 9.345h2v3h-2z" transform="matrix(.383 -.924 .924 .383 3.524 26.964)"/><path d="m20 3v-1h-2v1a15.01672 15.01672 0 0 1 -15 15h-1v2h1a17.019 17.019 0 0 0 17-17z"/><path d="m22 39a6.00657 6.00657 0 0 0 -6-6h-2.07129a7.01058 7.01058 0 0 0 -6.92871-6h-5v2h5a5.00588 5.00588 0 0 1 5 5v1h4a4 4 0 0 1 0 8h-14v2h14a6.00657 6.00657 0 0 0 6-6z"/><path d="m11 52h-2.10059a5.00854 5.00854 0 0 0 -4.89941-4h-2v2h2a3.00328 3.00328 0 0 1 3 3v1h4a3 3 0 0 1 0 6h-9v2h9a5 5 0 0 0 0-10z"/><path d="m28 22v1h4a5 5 0 0 1 0 10h-9v2h9a7 7 0 0 0 0-14h-2.05566a9.00123 9.00123 0 0 0 -4.65334-6.91309l-.95508 1.75684a7.00422 7.00422 0 0 1 3.66408 6.15625z"/><path d="m36 45h-2.05566a9.01251 9.01251 0 0 0 -8.94434-8h-1v2h1a7.00818 7.00818 0 0 1 7 7v1h4a5 5 0 0 1 0 10h-18v2h18a7 7 0 0 0 0-14z"/></svg>